<?xml version="1.0" encoding="UTF-8" standalone="no"?>
<!DOCTYPE svg PUBLIC "-//W3C//DTD SVG 1.1//EN" "http://www.w3.org/Graphics/SVG/1.1/DTD/svg11.dtd">
<svg width="100%" height="100%" viewBox="0 0 200 200" version="1.1" xmlns="http://www.w3.org/2000/svg" xmlns:xlink="http://www.w3.org/1999/xlink" xml:space="preserve" xmlns:serif="http://www.serif.com/" style="fill-rule:evenodd;clip-rule:evenodd;stroke-linejoin:round;stroke-miterlimit:2;">
    <g transform="matrix(1.07959,0,0,1.07959,7.50191,-4.7021)">
        <g transform="matrix(1.55787,0,0,1.55787,5.46114,50.6709)">
            <path d="M0,59.456L0,-0.001L51.492,-29.73L102.984,-0.001L102.984,59.456L51.494,89.186L0,59.456Z" style="fill:rgb(35,31,32);fill-rule:nonzero;"/>
        </g>
        <g transform="matrix(80.2561,0,0,-80.2561,85.6788,96.985)">
            <path d="M-0.926,0.535L-0.926,-0.535L-0,-1.069L0.926,-0.535L0.926,0.535L-0,1.069L-0.926,0.535Z" style="fill:url(#_Radial1);fill-rule:nonzero;"/>
        </g>
        <g transform="matrix(1.55787,0,0,1.55787,-1039.46,-100.273)">
            <g opacity="0.88">
                <g transform="matrix(0,110.147,110.147,0,722.23,71.5453)">
                    <path d="M0.043,-0L0.272,-0.396L0.729,-0.396L0.957,0L0.728,0.396L0.272,0.396L0.043,-0ZM0.25,0.433L0.75,0.433L1,0L0.75,-0.433L0.25,-0.433L-0,-0L0.25,0.433Z" style="fill:url(#_Linear2);fill-rule:nonzero;"/>
                </g>
            </g>
        </g>
        <g transform="matrix(1.55787,0,0,1.55787,-1039.46,-100.273)">
            <g opacity="0.2">
                <g transform="matrix(1,0,0,1,769.925,76.6914)">
                    <path d="M0,49.08L0,22.39L-47.695,-5.146L-95.389,22.391L-95.389,49.08C-81.048,52.365 -64.855,54.226 -47.694,54.226C-30.534,54.226 -14.341,52.365 0,49.08" style="fill:white;fill-rule:nonzero;"/>
                </g>
            </g>
        </g>
    </g>
    <defs>
        <radialGradient id="_Radial1" cx="0" cy="0" r="1" gradientUnits="userSpaceOnUse" gradientTransform="matrix(1,0,0,-1,0,2.22919e-05)"><stop offset="0" style="stop-color:white;stop-opacity:1"/><stop offset="1" style="stop-color:rgb(167,165,166);stop-opacity:1"/></radialGradient>
        <linearGradient id="_Linear2" x1="0" y1="0" x2="1" y2="0" gradientUnits="userSpaceOnUse" gradientTransform="matrix(1,0,0,1,0,1.86114e-06)"><stop offset="0" style="stop-color:rgb(229,228,228);stop-opacity:1"/><stop offset="1" style="stop-color:rgb(35,31,32);stop-opacity:1"/></linearGradient>
    </defs>
</svg>
