<?xml version="1.0" encoding="UTF-8" standalone="no"?>
<!DOCTYPE svg PUBLIC "-//W3C//DTD SVG 1.1//EN" "http://www.w3.org/Graphics/SVG/1.1/DTD/svg11.dtd">
<svg width="100%" height="100%" viewBox="0 0 200 200" version="1.1" xmlns="http://www.w3.org/2000/svg" xmlns:xlink="http://www.w3.org/1999/xlink" xml:space="preserve" xmlns:serif="http://www.serif.com/" style="fill-rule:evenodd;clip-rule:evenodd;stroke-linejoin:round;stroke-miterlimit:2;">
    <g transform="matrix(1.07959,0,0,1.07959,7.50191,-4.7021)">
        <g transform="matrix(1.55787,0,0,1.55787,5.46114,50.6709)">
            <path d="M0,59.456L0,-0.001L51.492,-29.73L102.984,-0.001L102.984,59.456L51.494,89.186L0,59.456Z" style="fill:rgb(35,31,32);fill-rule:nonzero;"/>
        </g>
        <g transform="matrix(80.2561,0,0,-80.2561,85.6788,96.985)">
            <path d="M-0.926,0.535L-0.926,-0.535L-0,-1.069L0.926,-0.535L0.926,0.535L-0,1.069L-0.926,0.535Z" style="fill:url(#_Radial1);fill-rule:nonzero;"/>
        </g>
        <g transform="matrix(1.55787,0,0,1.55787,-1039.46,-100.273)">
            <g opacity="0.88">
                <g transform="matrix(0,110.147,110.147,0,722.23,71.5453)">
                    <path d="M0.043,-0L0.272,-0.396L0.729,-0.396L0.957,0L0.728,0.396L0.272,0.396L0.043,-0ZM0.25,0.433L0.75,0.433L1,0L0.75,-0.433L0.25,-0.433L-0,-0L0.25,0.433Z" style="fill:url(#_Linear2);fill-rule:nonzero;"/>
                </g>
            </g>
        </g>
        <g transform="matrix(1.55787,0,0,1.55787,133.292,66.9502)">
            <path d="M0,17.396L0,23.813L-1.448,23.813L-1.448,18.062L-2.539,18.062L-2.539,15.278L-3.424,15.278L-3.424,18.062L-5.43,18.062L-5.43,20.665L-6.728,20.665L-6.728,5.108L-10.621,5.108L-10.621,10.375L-13.335,10.375L-13.335,20.665L-15.695,20.665L-15.695,23.813L-16.167,23.813L-16.167,19.696L-18.35,19.696L-18.35,9.346L-21.653,9.346L-21.653,20.423L-22.656,20.423L-22.656,3.595L-25.605,3.595L-25.605,23.813L-27.2,23.813L-27.2,-3.9L-32.019,-3.9L-32.019,15.943L-33.157,15.943L-33.157,9.225L-37.48,9.225L-37.48,15.943L-39.47,15.943L-39.47,14.309L-42.184,14.309L-42.184,2.021L-43.623,2.021L-43.623,-1.49L-44.935,-1.49L-44.935,2.021L-46.962,2.021L-46.962,18.123L-47.611,18.123L-47.611,21.089L-48.318,21.089L-48.318,5.169L-49.971,5.169L-49.971,9.285L-50.829,9.285L-50.829,21.089L-51.505,21.089L-51.505,23.752L-52.566,23.752L-52.566,19.636L-54.69,19.636L-54.69,16.428L-55.94,16.428L-55.94,19.636L-57.64,19.636L-57.64,23.752L-58.466,23.752L-58.466,20.423L-60.085,20.423L-60.085,16.367L-61.356,16.367L-61.356,20.423L-62.183,20.423L-62.183,23.752L-63.598,23.752L-63.598,21.694L-65.53,21.694C-63.915,4.67 -48.853,-8.715 -30.562,-8.715C-12.291,-8.715 2.757,4.639 4.402,21.634L2.357,21.634L2.357,17.396L0,17.396ZM6.518,23.813C6.007,4.673 -10.424,-10.75 -30.562,-10.75C-49.95,-10.75 -65.903,3.548 -67.52,21.694L-68.377,21.694L-68.377,28.146L7.254,28.146L7.254,23.813L6.518,23.813Z" style="fill:rgb(35,31,32);fill-rule:nonzero;"/>
        </g>
        <g transform="matrix(1.55787,0,0,1.55787,-1039.46,-100.273)">
            <g opacity="0.2">
                <g transform="matrix(1,0,0,1,769.925,76.6914)">
                    <path d="M0,49.08L0,22.39L-47.695,-5.146L-95.389,22.391L-95.389,49.08C-81.048,52.365 -64.855,54.226 -47.694,54.226C-30.534,54.226 -14.341,52.365 0,49.08" style="fill:white;fill-rule:nonzero;"/>
                </g>
            </g>
        </g>
    </g>
    <defs>
        <radialGradient id="_Radial1" cx="0" cy="0" r="1" gradientUnits="userSpaceOnUse" gradientTransform="matrix(1,0,0,-1,0,2.22919e-05)"><stop offset="0" style="stop-color:white;stop-opacity:1"/><stop offset="1" style="stop-color:rgb(167,165,166);stop-opacity:1"/></radialGradient>
        <linearGradient id="_Linear2" x1="0" y1="0" x2="1" y2="0" gradientUnits="userSpaceOnUse" gradientTransform="matrix(1,0,0,-1,0,1.86114e-06)"><stop offset="0" style="stop-color:rgb(229,228,228);stop-opacity:1"/><stop offset="1" style="stop-color:rgb(35,31,32);stop-opacity:1"/></linearGradient>
    </defs>
</svg>
