<?xml version="1.0" encoding="UTF-8" standalone="no"?>
<!DOCTYPE svg PUBLIC "-//W3C//DTD SVG 1.1//EN" "http://www.w3.org/Graphics/SVG/1.1/DTD/svg11.dtd">
<svg width="100%" height="100%" viewBox="0 0 200 200" version="1.1" xmlns="http://www.w3.org/2000/svg" xmlns:xlink="http://www.w3.org/1999/xlink" xml:space="preserve" xmlns:serif="http://www.serif.com/" style="fill-rule:evenodd;clip-rule:evenodd;stroke-linejoin:round;stroke-miterlimit:2;">
    <g transform="matrix(1.68187,0,0,1.68187,13.3995,50.0021)">
        <path d="M0,59.455L0,-0.001L51.49,-29.73L102.981,-0.002L102.981,59.456L51.492,89.185L0,59.455Z" style="fill:rgb(35,31,32);fill-rule:nonzero;"/>
    </g>
    <g transform="matrix(86.6427,0,0,-86.6427,100,100.002)">
        <path d="M-0.926,0.535L-0.926,-0.535L0,-1.069L0.926,-0.534L0.926,0.535L-0,1.069L-0.926,0.535Z" style="fill:url(#_Radial1);fill-rule:nonzero;"/>
    </g>
    <g transform="matrix(0,185.251,185.251,0,100.001,7.3745)">
        <path d="M0.25,-0.433L0.75,-0.433L1,-0L0.75,0.433L0.25,0.433L0,-0L0.25,-0.433ZM0.728,-0.396L0.272,-0.396L0.043,-0L0.272,0.396L0.728,0.396L0.957,-0L0.728,-0.396Z" style="fill:url(#_Linear2);fill-rule:nonzero;"/>
    </g>
    <g transform="matrix(1.68187,0,0,1.68187,-1335.58,-112.957)">
        <g opacity="0.2">
            <g transform="matrix(1,0,0,1,901.252,76.6925)">
                <path d="M0,49.511L0,22.39L-47.693,-5.146L-95.387,22.39L-95.387,49.511C-81.046,52.796 -64.854,54.657 -47.693,54.657C-30.533,54.657 -14.341,52.796 0,49.511" style="fill:white;fill-rule:nonzero;"/>
            </g>
        </g>
    </g>
    <defs>
        <radialGradient id="_Radial1" cx="0" cy="0" r="1" gradientUnits="userSpaceOnUse" gradientTransform="matrix(1,0,0,-1,0,1.99241e-05)"><stop offset="0" style="stop-color:rgb(148,194,61);stop-opacity:1"/><stop offset="1" style="stop-color:rgb(53,171,73);stop-opacity:1"/></radialGradient>
        <linearGradient id="_Linear2" x1="0" y1="0" x2="1" y2="0" gradientUnits="userSpaceOnUse" gradientTransform="matrix(1,0,0,1,0,-2.94338e-06)"><stop offset="0" style="stop-color:rgb(132,186,64);stop-opacity:1"/><stop offset="0.5" style="stop-color:rgb(132,186,64);stop-opacity:1"/><stop offset="1" style="stop-color:rgb(3,84,28);stop-opacity:1"/></linearGradient>
    </defs>
</svg>
