<?xml version="1.0" encoding="UTF-8" standalone="no"?>
<!DOCTYPE svg PUBLIC "-//W3C//DTD SVG 1.1//EN" "http://www.w3.org/Graphics/SVG/1.1/DTD/svg11.dtd">
<svg width="100%" height="100%" viewBox="0 0 200 200" version="1.1" xmlns="http://www.w3.org/2000/svg" xmlns:xlink="http://www.w3.org/1999/xlink" xml:space="preserve" xmlns:serif="http://www.serif.com/" style="fill-rule:evenodd;clip-rule:evenodd;stroke-linejoin:round;stroke-miterlimit:10;">
    <g transform="matrix(1.68187,0,0,1.68187,13.3995,50.0021)">
        <path d="M0,59.455L0,-0.001L51.49,-29.73L102.981,-0.002L102.981,59.456L51.492,89.185L0,59.455Z" style="fill:rgb(35,31,32);fill-rule:nonzero;"/>
    </g>
    <g transform="matrix(86.6427,0,0,-86.6427,100,100.002)">
        <path d="M-0.926,0.535L-0.926,-0.535L0,-1.069L0.926,-0.534L0.926,0.535L-0,1.069L-0.926,0.535Z" style="fill:url(#_Radial1);fill-rule:nonzero;"/>
    </g>
    <g transform="matrix(0,185.251,185.251,0,100.001,7.3745)">
        <path d="M0.25,-0.433L0.75,-0.433L1,-0L0.75,0.433L0.25,0.433L0,-0L0.25,-0.433ZM0.728,-0.396L0.272,-0.396L0.043,-0L0.272,0.396L0.728,0.396L0.957,-0L0.728,-0.396Z" style="fill:url(#_Linear2);fill-rule:nonzero;"/>
    </g>
    <g transform="matrix(1.68187,0,0,1.68187,-1335.58,-112.957)">
        <g opacity="0.2">
            <g transform="matrix(1,0,0,1,901.252,76.6925)">
                <path d="M0,49.511L0,22.39L-47.693,-5.146L-95.387,22.39L-95.387,49.511C-81.046,52.796 -64.854,54.657 -47.693,54.657C-30.533,54.657 -14.341,52.796 0,49.511" style="fill:white;fill-rule:nonzero;"/>
            </g>
        </g>
    </g>
    <g transform="matrix(1.68187,0,0,1.68187,141.955,63.8949)">
        <path d="M0,-11.9L0,-7.019L4.668,-7.019L4.668,-4.917L0,-4.917L0,0L-2.193,0L-2.193,-4.917L-6.869,-4.917L-6.869,-7.019L-2.193,-7.019L-2.193,-11.9L0,-11.9Z" style="fill:rgb(35,31,32);fill-rule:nonzero;"/>
    </g>
    <g transform="matrix(43.6853,152.338,152.338,-43.6853,79.7192,50.5684)">
        <path d="M0.084,0.029C0.078,0.021 0.061,-0.001 0.058,-0.011L0.057,-0.012C0.03,-0.126 0.16,-0.157 0.185,-0.146C0.185,-0.146 0.185,-0.146 0.184,-0.147C0.18,-0.161 0.172,-0.238 0.256,-0.262C0.311,-0.278 0.338,-0.218 0.358,-0.16C0.358,-0.159 0.359,-0.157 0.359,-0.156C0.368,-0.124 0.359,-0.076 0.35,-0.057C0.358,-0.053 0.368,-0.036 0.372,-0.029C0.393,-0.03 0.465,-0.037 0.509,-0.052C0.555,-0.068 0.667,-0.106 0.707,-0.135C0.709,-0.132 0.713,-0.13 0.716,-0.129C0.714,-0.098 0.716,-0.074 0.722,-0.055C0.728,-0.032 0.739,-0.018 0.747,-0.009C0.745,-0.007 0.744,-0.005 0.743,-0.002C0.721,-0.006 0.637,-0.015 0.586,-0.003C0.467,0.026 0.43,0.043 0.4,0.058C0.403,0.067 0.438,0.138 0.44,0.143C0.456,0.201 0.439,0.251 0.388,0.265C0.356,0.275 0.322,0.265 0.298,0.242C0.291,0.245 0.284,0.247 0.277,0.249C0.169,0.28 0.041,0.244 0.016,0.159C-0.011,0.066 0.043,0.056 0.084,0.029" style="fill:url(#_Linear3);fill-rule:nonzero;stroke:rgb(35,31,32);stroke-width:0.02px;"/>
    </g>
    <defs>
        <radialGradient id="_Radial1" cx="0" cy="0" r="1" gradientUnits="userSpaceOnUse" gradientTransform="matrix(1,0,0,-1,0,1.99241e-05)"><stop offset="0" style="stop-color:rgb(148,194,61);stop-opacity:1"/><stop offset="1" style="stop-color:rgb(53,171,73);stop-opacity:1"/></radialGradient>
        <linearGradient id="_Linear2" x1="0" y1="0" x2="1" y2="0" gradientUnits="userSpaceOnUse" gradientTransform="matrix(1,0,0,-1,0,-2.94338e-06)"><stop offset="0" style="stop-color:rgb(132,186,64);stop-opacity:1"/><stop offset="0.5" style="stop-color:rgb(132,186,64);stop-opacity:1"/><stop offset="1" style="stop-color:rgb(3,84,28);stop-opacity:1"/></linearGradient>
        <linearGradient id="_Linear3" x1="0" y1="0" x2="1" y2="0" gradientUnits="userSpaceOnUse" gradientTransform="matrix(1,0,0,-1,0,0.00221939)"><stop offset="0" style="stop-color:rgb(19,100,51);stop-opacity:1"/><stop offset="0.7" style="stop-color:rgb(21,53,29);stop-opacity:1"/><stop offset="1" style="stop-color:rgb(21,53,29);stop-opacity:1"/></linearGradient>
    </defs>
</svg>
